<svg width="36" height="36" viewBox="0 0 36 36" fill="none" xmlns="http://www.w3.org/2000/svg">
<path d="M27.8522 20.1155C25.4025 21.7163 25.2287 23.1433 23.5477 24.4166C22.0505 25.6599 20.1121 26.4118 18 26.4118C15.6305 26.4118 13.485 25.4694 11.9309 23.9488C10.3769 22.4281 9.41775 20.326 9.41441 18.0033V17.9933C9.41441 13.3479 13.2577 9.58151 18 9.58151C20.1155 9.58151 22.0505 10.3301 23.5477 11.5767C25.2287 12.85 25.4025 14.277 27.8522 15.8778C29.2157 16.7668 32.3472 16.8102 35.9265 16.6097C35.5956 12.195 33.6706 8.21797 30.7196 5.27701C27.4645 2.01188 22.9629 0 17.9967 0C13.0304 0 8.52878 2.01188 5.27033 5.27367C2.01188 8.52209 0 13.0204 0 17.9967C0 27.9391 8.05421 36 17.9967 36H31.4081C33.9413 36 35.9933 33.9413 35.9933 31.4148V19.3903C32.384 19.1864 29.2258 19.2232 27.8522 20.1188V20.1155Z" fill="#D49E68"/>
<path d="M23.9314 18.4712C22.9121 18.7353 20.6963 19.7579 18.133 19.7579C15.5697 19.7579 13.3539 18.7353 12.3346 18.4712C11.8768 18.3543 11.7297 18.4211 11.6829 18.6751C11.576 19.2767 11.85 20.2692 12.4082 21.0813C13.5545 22.749 15.6298 24.0056 18.133 24.0056C20.6362 24.0056 22.7082 22.749 23.8578 21.0813C24.4126 20.2692 24.69 19.2767 24.5831 18.6751C24.5363 18.4211 24.3926 18.3543 23.9347 18.4712H23.9314Z" fill="#D49E68"/>
</svg>